<svg xmlns="http://www.w3.org/2000/svg" viewBox="0 0 500 500"><g id="freepik--Floor--inject-36"><path d="M88,384c89.46,46.74,234.52,46.74,324,0s89.47-122.52,0-169.26-234.52-46.74-324,0S-1.46,337.3,88,384Z" style="fill:#f5f5f5"></path></g><g id="freepik--Shadows--inject-36"><ellipse cx="82.92" cy="294.86" rx="22.98" ry="10.95" style="fill:#ebebeb"></ellipse><ellipse cx="345.16" cy="305.81" rx="30.67" ry="14.62" style="fill:#ebebeb"></ellipse></g><g id="freepik--Plants--inject-36"><path d="M436.85,245.66s2.37-7.32,10.08-15.12c3.4-3.44,5.62-5.84,4.91-7.89-.64-1.81-2.8-2.75-5.89-1.29-4.39,2.08-7.35,5.94-9.1,13.69Z" style="fill:#3D9A54"></path><path d="M436.85,245.66s2.37-7.32,10.08-15.12c3.4-3.44,5.62-5.84,4.91-7.89-.64-1.81-2.8-2.75-5.89-1.29-4.39,2.08-7.35,5.94-9.1,13.69Z" style="opacity:0.1"></path><path d="M436.36,241.06h-.09a.38.38,0,0,1-.27-.46c2.75-10.62,9.86-17.2,12.87-18.72a.39.39,0,0,1,.51.17.38.38,0,0,1-.17.5c-2.91,1.47-9.8,7.87-12.48,18.24A.38.38,0,0,1,436.36,241.06Z" style="fill:#fff"></path><path d="M436.85,254.75s3.29-6.45,7.26-9.88,9.07-6.93,4.75-9.61-11.43,2.58-12,7.77Z" style="fill:#3D9A54"></path><path d="M436.36,250.16h-.08a.38.38,0,0,1-.28-.45c1.87-8,8.58-12.52,10.81-13.27a.38.38,0,0,1,.23.72c-2,.68-8.54,5.13-10.31,12.72A.38.38,0,0,1,436.36,250.16Z" style="fill:#fff"></path><path d="M144.39,319.58s-1.52-3.38-7.87-4.81c-6.18-1.39-9.25,0-13.42-.72s-3.08-8.51,8.14-7.7c10.27.74,13.15,8.82,13.15,8.82Z" style="fill:#3D9A54"></path><path d="M145,317.72a.38.38,0,0,1-.34-.23c-1-2.39-4.7-6.29-9.91-7.48-6.47-1.47-9.91,0-9.94,0a.38.38,0,0,1-.31-.69c.15-.06,3.71-1.61,10.41-.08,5.79,1.32,9.48,5.56,10.44,7.93a.37.37,0,0,1-.2.49Z" style="fill:#fff"></path><path d="M144.39,315.73a24.32,24.32,0,0,0-4.8-6.07c-6-5.82-14-7.65-18-10.83-4.4-3.43.93-7.39,6.59-7.14,3.24.15,6.66,2.29,8.54,3.83,6.62,5.41,7.71,14.14,7.71,14.14Z" style="fill:#3D9A54"></path><path d="M144.39,315.73a24.32,24.32,0,0,0-4.8-6.07c-6-5.82-14-7.65-18-10.83-4.4-3.43.93-7.39,6.59-7.14,3.24.15,6.66,2.29,8.54,3.83,6.62,5.41,7.71,14.14,7.71,14.14Z" style="fill:#fff;opacity:0.5"></path><path d="M145,315.14a.38.38,0,0,1-.37-.32,23.79,23.79,0,0,0-5.52-11.33c-4.72-5.37-12.79-8.25-12.88-8.28a.38.38,0,0,1-.23-.47.37.37,0,0,1,.48-.23c.34.11,8.34,3,13.19,8.48a24.2,24.2,0,0,1,5.71,11.73.37.37,0,0,1-.33.42Z" style="fill:#fff"></path><path d="M281.63,377.88s1.7-3.3,8.12-4.39c6.24-1.06,9.23.45,13.44,0s3.53-8.34-7.72-8.13c-10.29.19-13.6,8.1-13.6,8.1Z" style="fill:#3D9A54"></path><path d="M281.63,377.88s1.7-3.3,8.12-4.39c6.24-1.06,9.23.45,13.44,0s3.53-8.34-7.72-8.13c-10.29.19-13.6,8.1-13.6,8.1Z" style="opacity:0.1"></path><path d="M281.14,376.3a.44.44,0,0,1-.22-.07.37.37,0,0,1-.09-.52c2.39-3.42,6.74-6,11.65-6.86,6.31-1.13,10,.87,10.16,1a.37.37,0,1,1-.36.65s-3.63-1.95-9.67-.87c-4.71.84-8.89,3.29-11.16,6.55A.4.4,0,0,1,281.14,376.3Z" style="fill:#fff"></path><path d="M282.08,373.25A31.58,31.58,0,0,1,287,368.3c6.33-5.48,14.34-6.37,18.58-9.33,4.58-3.19-.53-7.43-6.2-7.48-3.24,0-6.77,1.93-8.74,3.37a25.8,25.8,0,0,0-9,12.47Z" style="fill:#3D9A54"></path><path d="M282.08,373.25A31.58,31.58,0,0,1,287,368.3c6.33-5.48,14.34-6.37,18.58-9.33,4.58-3.19-.53-7.43-6.2-7.48-3.24,0-6.77,1.93-8.74,3.37a25.8,25.8,0,0,0-9,12.47Z" style="fill:#fff;opacity:0.5"></path><path d="M281.14,373.17H281a.39.39,0,0,1-.24-.47A31.8,31.8,0,0,1,288,361.25a23.83,23.83,0,0,1,12.92-6.87.36.36,0,0,1,.41.32.37.37,0,0,1-.33.42,23.69,23.69,0,0,0-12.47,6.66,30.82,30.82,0,0,0-7,11.13A.38.38,0,0,1,281.14,373.17Z" style="fill:#fff"></path></g><g id="freepik--bar-charts--inject-36"><path d="M185,320.42h0V244.87H144.39v75.56h0c0,3,2,6,6,8.28,7.93,4.58,20.79,4.58,28.72,0,4-2.29,5.94-5.28,5.95-8.28h0Z" style="fill:#37474f"></path><path d="M185,320.42h0V244.87H144.39v75.56h0c0,3,2,6,6,8.28,7.93,4.58,20.79,4.58,28.72,0,4-2.29,5.94-5.28,5.95-8.28h0Z" style="fill:#e0e0e0;opacity:0"></path><path d="M150.34,253.67c-7.94-4.58-7.94-12,0-16.59s20.79-4.58,28.72,0,7.93,12,0,16.59S158.27,258.24,150.34,253.67Z" style="fill:#455a64"></path><path d="M233.75,348.57h0v-55H193.13v55h0c0,3,2,6,6,8.28,7.93,4.58,20.79,4.58,28.72,0,4-2.28,5.95-5.28,5.95-8.28Z" style="fill:#37474f"></path><path d="M233.75,348.57h0v-55H193.13v55h0c0,3,2,6,6,8.28,7.93,4.58,20.79,4.58,28.72,0,4-2.28,5.95-5.28,5.95-8.28Z" style="fill:#e0e0e0;opacity:0"></path><path d="M199.08,302.38c-7.93-4.58-7.93-12,0-16.59s20.79-4.58,28.72,0,7.94,12,0,16.59S207,307,199.08,302.38Z" style="fill:#455a64"></path><path d="M282.5,376.71h0V334H241.88v42.72h0c0,3,2,6,6,8.29,7.93,4.58,20.79,4.58,28.72,0,4-2.29,5.94-5.29,5.95-8.29Z" style="fill:#37474f"></path><path d="M282.5,376.71h0V334H241.88v42.72h0c0,3,2,6,6,8.29,7.93,4.58,20.79,4.58,28.72,0,4-2.29,5.94-5.29,5.95-8.29Z" style="fill:#e0e0e0;opacity:0"></path><ellipse cx="262.19" cy="334.49" rx="20.31" ry="11.73" style="fill:#455a64"></ellipse><path d="M141.79,347.06l-9.59-5.53,5.31-6.88c.68-.88.36-1.36-.71-1.09l-12.72,3.28-9.59-5.54a5.74,5.74,0,0,0-5.2,0L94.18,340c-1.44.83-1.44,2.17,0,3l27.3,15.76a5.74,5.74,0,0,0,5.2,0l15.11-8.73C143.22,349.23,143.22,347.89,141.79,347.06Z" style="fill:#3D9A54"></path><path d="M126.45,343.67a2.38,2.38,0,0,1,.47,0,1.15,1.15,0,0,1,.44.15l1.37.79a.4.4,0,0,1,.2.22c0,.08,0,.15-.14.2a.19.19,0,0,1-.1,0,.33.33,0,0,1-.15,0l-19,1.5H109a1.18,1.18,0,0,1-.44-.16l-1.37-.79a.4.4,0,0,1-.2-.22c0-.08,0-.15.14-.2a.19.19,0,0,1,.1,0l.15,0Zm-6.12-1.27a10.9,10.9,0,0,1-1.27.73,5.94,5.94,0,0,1-1.11.43,4.93,4.93,0,0,1-1.23.15,5.12,5.12,0,0,1-2.63-.72,3.25,3.25,0,0,1-1-.76,1.17,1.17,0,0,1-.29-.75,1.11,1.11,0,0,1,.27-.71,2.71,2.71,0,0,1,.72-.65,6.51,6.51,0,0,1,.59-.38c.19-.11.42-.23.67-.35a5.46,5.46,0,0,1,1.13-.42,5.24,5.24,0,0,1,2.53,0,5.52,5.52,0,0,1,1.32.55,3.06,3.06,0,0,1,.94.76,1.19,1.19,0,0,1,.3.75,1.23,1.23,0,0,1-.27.71A2.71,2.71,0,0,1,120.33,342.4Zm1.89,7.82A10,10,0,0,1,121,351a5.6,5.6,0,0,1-1.12.42,4.46,4.46,0,0,1-1.23.16,5,5,0,0,1-1.31-.18,5.11,5.11,0,0,1-1.32-.54,3.35,3.35,0,0,1-.94-.76,1.17,1.17,0,0,1-.29-.76,1.2,1.2,0,0,1,.26-.71,2.76,2.76,0,0,1,.73-.64,4.21,4.21,0,0,1,.59-.38,5.86,5.86,0,0,1,.67-.35,5.38,5.38,0,0,1,1.12-.42,5.6,5.6,0,0,1,1.23-.16,5.12,5.12,0,0,1,2.62.72,3.12,3.12,0,0,1,1,.76,1.11,1.11,0,0,1,0,1.46A2.94,2.94,0,0,1,122.22,350.22Zm-6.37-9a1.21,1.21,0,0,0-.47.48c0,.14,0,.28.29.42a1.2,1.2,0,0,0,.72.17,2.61,2.61,0,0,0,.83-.28,8.18,8.18,0,0,0,1.09-.63,1.18,1.18,0,0,0,.48-.48c0-.14-.05-.28-.29-.42a1.16,1.16,0,0,0-.73-.16,2.44,2.44,0,0,0-.82.27A7.72,7.72,0,0,0,115.85,341.18Zm1.9,7.82a1.18,1.18,0,0,0-.48.48c0,.13,0,.27.29.41a1.11,1.11,0,0,0,.73.17,2.69,2.69,0,0,0,.82-.27,7.72,7.72,0,0,0,1.1-.63,1.14,1.14,0,0,0,.47-.48c0-.14,0-.28-.29-.42a1.2,1.2,0,0,0-.72-.17,2.49,2.49,0,0,0-.82.28A7.72,7.72,0,0,0,117.75,349Z" style="fill:#fff"></path><path d="M194.61,377.54,185,372l5.31-6.87c.67-.88.35-1.37-.72-1.09l-12.72,3.27-9.59-5.53a5.72,5.72,0,0,0-5.19,0L147,370.5c-1.43.83-1.43,2.18,0,3l27.3,15.77a5.8,5.8,0,0,0,5.2,0l15.11-8.73C196.05,379.71,196.05,378.37,194.61,377.54Z" style="fill:#3D9A54"></path><path d="M179.27,374.15h.48a1.24,1.24,0,0,1,.44.16l1.36.79c.12.07.19.14.2.22s0,.14-.13.2a.23.23,0,0,1-.1,0l-.15,0-19,1.5a2.49,2.49,0,0,1-.48,0,1.13,1.13,0,0,1-.44-.16l-1.36-.78c-.12-.07-.19-.15-.2-.22a.21.21,0,0,1,.13-.21l.1,0,.15,0Zm-6.12-1.27a10,10,0,0,1-1.26.73,5.6,5.6,0,0,1-1.12.42,4.51,4.51,0,0,1-1.23.16,5,5,0,0,1-1.31-.18,5.11,5.11,0,0,1-1.32-.54,3.42,3.42,0,0,1-.95-.76,1.1,1.1,0,0,1,0-1.47,2.87,2.87,0,0,1,.72-.64,5.82,5.82,0,0,1,.59-.38,7.09,7.09,0,0,1,.68-.35,5.38,5.38,0,0,1,1.12-.42,5.07,5.07,0,0,1,3.85.56,3.25,3.25,0,0,1,.95.76,1.15,1.15,0,0,1,.29.75,1.16,1.16,0,0,1-.27.71A2.71,2.71,0,0,1,173.15,372.88Zm1.9,7.82a10.69,10.69,0,0,1-1.27.73,5.29,5.29,0,0,1-1.11.42,4.93,4.93,0,0,1-1.23.15,5.12,5.12,0,0,1-2.63-.72,3.24,3.24,0,0,1-.95-.75,1.17,1.17,0,0,1-.29-.76,1.21,1.21,0,0,1,.27-.71,2.89,2.89,0,0,1,.72-.65c.2-.14.4-.26.59-.38s.42-.23.67-.35a5.46,5.46,0,0,1,1.13-.42,6.09,6.09,0,0,1,1.23-.15,4.94,4.94,0,0,1,1.3.17,5,5,0,0,1,1.32.55,3.25,3.25,0,0,1,.95.76,1.09,1.09,0,0,1,0,1.46A2.89,2.89,0,0,1,175.05,380.7Zm-6.37-9a1.18,1.18,0,0,0-.48.48c0,.13.05.27.29.41a1.11,1.11,0,0,0,.73.17,2.78,2.78,0,0,0,.82-.27,6.9,6.9,0,0,0,1.1-.64,1.14,1.14,0,0,0,.47-.47c0-.14-.05-.28-.29-.42a1.13,1.13,0,0,0-.72-.17,2.53,2.53,0,0,0-.83.28A7.59,7.59,0,0,0,168.68,371.66Zm1.89,7.82a1.27,1.27,0,0,0-.47.47c0,.14.05.28.29.42a1.13,1.13,0,0,0,.72.17,2.74,2.74,0,0,0,.83-.27,8.69,8.69,0,0,0,1.09-.64,1.24,1.24,0,0,0,.48-.47c.05-.14,0-.28-.29-.42a1.17,1.17,0,0,0-.73-.17,2.78,2.78,0,0,0-.82.27A9.63,9.63,0,0,0,170.57,379.48Z" style="fill:#fff"></path><path d="M247.39,408l-9.59-5.53,5.32-6.89c.67-.87.35-1.36-.72-1.08l-12.72,3.27-9.59-5.53a5.74,5.74,0,0,0-5.2,0L199.78,401c-1.43.83-1.43,2.18,0,3l27.3,15.77a5.8,5.8,0,0,0,5.2,0L247.39,411C248.83,410.2,248.83,408.86,247.39,408Z" style="fill:#3D9A54"></path><path d="M232.05,404.64h.47a1.18,1.18,0,0,1,.44.16l1.37.79c.12.07.19.14.2.22s0,.14-.13.2l-.1,0-.15,0-19,1.5a2.41,2.41,0,0,1-.47,0,1.08,1.08,0,0,1-.44-.16l-1.36-.78c-.12-.07-.19-.15-.2-.22a.21.21,0,0,1,.13-.21l.1,0a.33.33,0,0,1,.15,0Zm-6.12-1.27a9.47,9.47,0,0,1-1.27.73,5.29,5.29,0,0,1-1.11.42,4.51,4.51,0,0,1-1.23.16,5.11,5.11,0,0,1-1.32-.18,5,5,0,0,1-1.31-.54,3.42,3.42,0,0,1-.95-.76,1.17,1.17,0,0,1-.29-.76,1.21,1.21,0,0,1,.27-.71,3.1,3.1,0,0,1,.72-.65c.2-.14.4-.26.59-.37s.42-.23.67-.36a5.6,5.6,0,0,1,2.36-.57,5.19,5.19,0,0,1,2.62.72,3.25,3.25,0,0,1,.95.76,1.19,1.19,0,0,1,.29.75,1.23,1.23,0,0,1-.27.71A2.71,2.71,0,0,1,225.93,403.37Zm1.89,7.82a11.42,11.42,0,0,1-1.26.73,5.51,5.51,0,0,1-1.11.42,5.17,5.17,0,0,1-2.55,0,5.08,5.08,0,0,1-1.31-.55,3.12,3.12,0,0,1-1-.76,1.13,1.13,0,0,1-.29-.75,1.17,1.17,0,0,1,.26-.71,3.15,3.15,0,0,1,.73-.65,6.51,6.51,0,0,1,.59-.38c.19-.11.42-.23.67-.35a5.14,5.14,0,0,1,2.36-.57,4.94,4.94,0,0,1,1.3.17,5.08,5.08,0,0,1,1.31.55,3.12,3.12,0,0,1,1,.76,1.13,1.13,0,0,1,.29.75,1.17,1.17,0,0,1-.26.71A2.78,2.78,0,0,1,227.82,411.19Zm-6.37-9a1.21,1.21,0,0,0-.47.48c0,.13.05.27.29.41a1.15,1.15,0,0,0,.72.17,2.74,2.74,0,0,0,.83-.27,7.37,7.37,0,0,0,1.1-.64,1.14,1.14,0,0,0,.47-.47c.05-.14,0-.28-.29-.42a1.17,1.17,0,0,0-.73-.17,2.57,2.57,0,0,0-.82.28A8.31,8.31,0,0,0,221.45,402.15Zm1.9,7.82a1.32,1.32,0,0,0-.48.47c0,.14,0,.28.3.42a1.13,1.13,0,0,0,.72.17,2.69,2.69,0,0,0,.82-.27,8.84,8.84,0,0,0,1.1-.64,1.24,1.24,0,0,0,.48-.47q.08-.21-.3-.42a1.13,1.13,0,0,0-.72-.17,2.69,2.69,0,0,0-.82.27A8.84,8.84,0,0,0,223.35,410Z" style="fill:#fff"></path><polygon points="384.05 243.03 367.8 233.65 367.8 186.74 384.05 196.12 384.05 243.03" style="fill:#37474f"></polygon><polygon points="384.05 243.03 400.3 233.65 400.3 186.74 384.05 196.12 384.05 243.03" style="fill:#455a64"></polygon><polygon points="367.8 186.74 384.05 196.12 400.3 186.74 384.05 177.36 367.8 186.74" style="fill:#455a64"></polygon><polygon points="347.49 221.92 331.24 212.54 331.24 118.73 347.49 128.11 347.49 221.92" style="fill:#37474f"></polygon><polygon points="347.49 221.92 363.74 212.54 363.74 118.73 347.49 128.11 347.49 221.92" style="fill:#455a64"></polygon><polygon points="331.24 118.73 347.49 128.11 363.74 118.73 347.49 109.35 331.24 118.73" style="fill:#455a64"></polygon><polygon points="310.93 200.81 294.68 191.43 294.68 158.6 310.93 167.98 310.93 200.81" style="fill:#37474f"></polygon><polygon points="310.93 200.81 327.18 191.43 327.18 158.6 310.93 167.98 310.93 200.81" style="fill:#455a64"></polygon><polygon points="294.68 158.6 310.93 167.98 327.18 158.6 310.93 149.22 294.68 158.6" style="fill:#455a64"></polygon><polygon points="420.61 264.14 404.36 254.75 404.36 165.64 420.6 175.02 420.61 264.14" style="fill:#37474f"></polygon><polygon points="420.6 264.14 436.85 254.75 436.85 165.64 420.6 175.02 420.6 264.14" style="fill:#455a64"></polygon><polygon points="404.36 165.64 420.6 175.02 436.85 165.64 420.61 156.25 404.36 165.64" style="fill:#455a64"></polygon></g><g id="freepik--main-charts--inject-36"><g style="opacity:0.30000000000000004"><path d="M307,257.33l-.17-103.88a3.85,3.85,0,0,0-1.74-3L182.53,80c-1-.55-1.73-.1-1.73,1L181,184.84a3.82,3.82,0,0,0,1.74,3l122.57,70.5C306.24,258.89,307,258.44,307,257.33Z" style="fill:#fff"></path></g><path d="M306.06,259.07a2.09,2.09,0,0,1-1-.3l-122.57-70.5a4.29,4.29,0,0,1-2-3.43L180.3,81a1.55,1.55,0,0,1,2.48-1.44L305.35,150a4.31,4.31,0,0,1,2,3.43l.17,103.88a1.72,1.72,0,0,1-.75,1.56A1.4,1.4,0,0,1,306.06,259.07ZM181.76,80.22a.39.39,0,0,0-.2,0,.77.77,0,0,0-.26.69l.17,103.88A3.3,3.3,0,0,0,183,187.4l122.57,70.5c.3.17.56.22.72.12s.26-.34.26-.69l-.17-103.88a3.32,3.32,0,0,0-1.48-2.56L182.28,80.39A1.09,1.09,0,0,0,181.76,80.22Z" style="fill:#3D9A54"></path><path d="M295.36,234.41c-3.25-2.31-5.15-4.4-6.44-20.46l-.11-1.37c-1.21-15.09-2-25.05-8.88-29.16-3.3-2-5.94,0-8.73,2.17-2.53,1.93-5.13,3.91-8.06,2.24-5.15-3-6-8.94-7.6-19.78-.2-1.34-.4-2.75-.63-4.23-.35-2.31-.65-4.46-.93-6.48-1.58-11.38-2.54-18.26-8.36-21.77a4.51,4.51,0,0,0-4-.61c-4.41,1.54-7.86,10.87-11.51,20.76-.28.73-.55,1.5-.84,2.27-2.65,7.29-5.65,15.56-9.8,17.09a4.14,4.14,0,0,1-3.59-.36c-4.13-2.34-4.87-8.74-5.58-14.94S208.9,147.35,205,145a2.4,2.4,0,0,0-2.25-.19c-4.84,1.88-9.13,16.2-9.17,16.34l-1-.28c.18-.61,4.47-14.93,9.76-17a3.41,3.41,0,0,1,3.13.27c4.31,2.58,5.06,9.15,5.79,15.5s1.39,12.1,5.09,14.19a3.1,3.1,0,0,0,2.74.29c3.71-1.37,6.76-9.75,9.21-16.49.29-.78.56-1.54.84-2.28,3.9-10.55,7.27-19.66,12.12-21.36a5.49,5.49,0,0,1,4.82.71c6.22,3.76,7.21,10.81,8.83,22.49.28,2,.58,4.16.93,6.46.23,1.49.43,2.9.63,4.23,1.53,10.54,2.38,16.34,7.11,19.06,2.35,1.35,4.48-.28,6.95-2.16,2.8-2.14,6-4.55,9.85-2.24,7.31,4.38,8.13,14.55,9.36,29.94l.11,1.37c1.32,16.38,3.3,17.78,6,19.73Z" style="fill:#3D9A54"></path><g style="opacity:0.4"><path d="M295.36,234.41c-3.25-2.31-5.15-4.4-6.44-20.46l-.11-1.37c-1.21-15.09-2-25.05-8.88-29.16-3.3-2-5.94,0-8.73,2.17-2.53,1.93-5.13,3.91-8.06,2.24-5.15-3-6-8.94-7.6-19.78-.2-1.34-.4-2.75-.63-4.23-.35-2.31-.65-4.46-.93-6.48-1.58-11.38-2.54-18.26-8.36-21.77a4.51,4.51,0,0,0-4-.61c-4.41,1.54-7.86,10.87-11.51,20.76-.28.73-.55,1.5-.84,2.27-2.65,7.29-5.65,15.56-9.8,17.09a4.14,4.14,0,0,1-3.59-.36c-4.13-2.34-4.87-8.74-5.58-14.94S208.9,147.35,205,145a2.4,2.4,0,0,0-2.25-.19c-4.84,1.88-9.13,16.2-9.17,16.34l-1-.28c.18-.61,4.47-14.93,9.76-17a3.41,3.41,0,0,1,3.13.27c4.31,2.58,5.06,9.15,5.79,15.5s1.39,12.1,5.09,14.19a3.1,3.1,0,0,0,2.74.29c3.71-1.37,6.76-9.75,9.21-16.49.29-.78.56-1.54.84-2.28,3.9-10.55,7.27-19.66,12.12-21.36a5.49,5.49,0,0,1,4.82.71c6.22,3.76,7.21,10.81,8.83,22.49.28,2,.58,4.16.93,6.46.23,1.49.43,2.9.63,4.23,1.53,10.54,2.38,16.34,7.11,19.06,2.35,1.35,4.48-.28,6.95-2.16,2.8-2.14,6-4.55,9.85-2.24,7.31,4.38,8.13,14.55,9.36,29.94l.11,1.37c1.32,16.38,3.3,17.78,6,19.73Z"></path></g><path d="M278.45,179a5.71,5.71,0,0,1,2.57,4.43c0,1.63-1.15,2.29-2.56,1.48a5.65,5.65,0,0,1-2.57-4.43C275.89,178.89,277,178.23,278.45,179Z" style="fill:#3D9A54"></path><g style="opacity:0.2"><path d="M278.45,179a5.71,5.71,0,0,1,2.57,4.43c0,1.63-1.15,2.29-2.56,1.48a5.65,5.65,0,0,1-2.57-4.43C275.89,178.89,277,178.23,278.45,179Z"></path></g><path d="M245.88,132.19a5.66,5.66,0,0,1,2.56,4.43c0,1.63-1.14,2.29-2.55,1.48a5.64,5.64,0,0,1-2.57-4.43C243.32,132,244.46,131.38,245.88,132.19Z" style="fill:#3D9A54"></path><g style="opacity:0.5"><path d="M245.88,132.19a5.66,5.66,0,0,1,2.56,4.43c0,1.63-1.14,2.29-2.55,1.48a5.64,5.64,0,0,1-2.57-4.43C243.32,132,244.46,131.38,245.88,132.19Z" style="fill:#fff"></path></g><path d="M205.27,141.64a5.62,5.62,0,0,1,2.57,4.42c0,1.64-1.14,2.3-2.56,1.49a5.67,5.67,0,0,1-2.56-4.43C202.71,141.49,203.86,140.82,205.27,141.64Z" style="fill:#3D9A54"></path><path d="M241.87,252.75V148.87a3.84,3.84,0,0,0-1.73-3L133.93,84.55c-1-.55-1.73-.1-1.73,1V189.43a3.83,3.83,0,0,0,1.73,3l106.21,61.32C241.1,254.31,241.87,253.86,241.87,252.75Z" style="fill:#fff;opacity:0.65"></path><path d="M240.92,254.49a2.09,2.09,0,0,1-1-.3L133.68,192.87a4.34,4.34,0,0,1-2-3.44V85.55a1.55,1.55,0,0,1,2.48-1.43l106.21,61.32a4.32,4.32,0,0,1,2,3.43V252.75a1.72,1.72,0,0,1-.75,1.56A1.4,1.4,0,0,1,240.92,254.49ZM133.16,84.82a.4.4,0,0,0-.2,0,.77.77,0,0,0-.26.69V189.43a3.33,3.33,0,0,0,1.48,2.57l106.21,61.32a.77.77,0,0,0,.73.12c.16-.09.25-.34.25-.69V148.87a3.3,3.3,0,0,0-1.48-2.56L133.68,85A1,1,0,0,0,133.16,84.82Z" style="fill:#3D9A54"></path><path d="M223.6,229.14V160.78a1.92,1.92,0,0,0-.87-1.5l-10.45-6c-.48-.28-.87-.06-.87.5V222.1a1.89,1.89,0,0,0,.87,1.5l10.45,6C223.21,229.92,223.6,229.69,223.6,229.14Z" style="fill:#3D9A54"></path><g style="opacity:0.30000000000000004"><path d="M223.6,229.14V160.78a1.92,1.92,0,0,0-.87-1.5l-10.45-6c-.48-.28-.87-.06-.87.5V222.1a1.89,1.89,0,0,0,.87,1.5l10.45,6C223.21,229.92,223.6,229.69,223.6,229.14Z"></path></g><path d="M203.29,217.41V181.89a1.92,1.92,0,0,0-.87-1.5l-10.46-6c-.47-.27-.86,0-.86.5v35.53a1.94,1.94,0,0,0,.86,1.5l10.46,6C202.9,218.19,203.29,218,203.29,217.41Z" style="fill:#3D9A54"></path><g style="opacity:0.2"><path d="M203.29,217.41V181.89a1.92,1.92,0,0,0-.87-1.5l-10.46-6c-.47-.27-.86,0-.86.5v35.53a1.94,1.94,0,0,0,.86,1.5l10.46,6C202.9,218.19,203.29,218,203.29,217.41Z" style="fill:#fff"></path></g><path d="M183,205.69V151.4a1.92,1.92,0,0,0-.87-1.5l-10.46-6c-.47-.28-.86-.06-.86.5v54.28a1.92,1.92,0,0,0,.86,1.5l10.46,6C182.59,206.46,183,206.24,183,205.69Z" style="fill:#3D9A54"></path><g style="opacity:0.2"><path d="M183,205.69V151.4a1.92,1.92,0,0,0-.87-1.5l-10.46-6c-.47-.28-.86-.06-.86.5v54.28a1.92,1.92,0,0,0,.86,1.5l10.46,6C182.59,206.46,183,206.24,183,205.69Z"></path></g><path d="M162.66,194V116.22a1.91,1.91,0,0,0-.86-1.5l-10.46-6c-.47-.28-.86,0-.86.5v77.74a1.94,1.94,0,0,0,.86,1.5l10.46,6C162.28,194.74,162.66,194.51,162.66,194Z" style="fill:#3D9A54"></path></g></svg>